<?xml version="1.0" encoding="UTF-8"?>
<!DOCTYPE svg PUBLIC "-//W3C//DTD SVG 1.1//EN" "http://www.w3.org/Graphics/SVG/1.1/DTD/svg11.dtd">
<!-- Creator: CorelDRAW 2021 (64-Bit) -->
<svg xmlns="http://www.w3.org/2000/svg" xml:space="preserve" width="541.941mm" height="245.127mm" version="1.1" style="shape-rendering:geometricPrecision; text-rendering:geometricPrecision; image-rendering:optimizeQuality; fill-rule:evenodd; clip-rule:evenodd"
viewBox="0 0 37917.91 17150.76"
 xmlns:xlink="http://www.w3.org/1999/xlink"
 xmlns:xodm="http://www.corel.com/coreldraw/odm/2003">
 <defs>
  <style type="text/css">
   <![CDATA[
    .fil1 {fill:#2B2A29}
    .fil0 {fill:#CD2628}
   ]]>
  </style>
 </defs>
 <g id="Layer_x0020_1">
  <metadata id="CorelCorpID_0Corel-Layer"/>
  <polygon class="fil0" points="12792.33,17002.51 18091.27,5764.37 18091.27,17071.72 18091.27,17098.22 22217.3,17098.22 22217.3,6.16 16734.55,6.16 11078.7,12181.44 5539.28,16.86 19.24,16.86 -0,17150.76 4164.2,17150.76 4164.2,5664.68 9246.76,17002.51 "/>
  <path class="fil1" d="M25352.25 3227.86l0 10670.6 -1475.08 0c-154.14,0 -279.87,125.72 -279.87,279.87l0 2624.86c0,154.14 125.72,279.87 279.87,279.87l6138.56 0c154.14,0 279.87,-125.72 279.87,-279.87l0 -2611.16c0,-153.44 -124.43,-278.77 -277.87,-279.86l-1190.55 -8.49 0 -10366.51 3823.11 0 0 13314.92c0,154.14 125.72,279.87 279.87,279.87l4707.89 0c154.14,0 279.87,-125.72 279.87,-279.87l0 -2684.62c0,-154.14 -125.72,-279.87 -279.87,-279.87l-1479.53 0 0 -10654.27 1479.53 0c154.14,0 279.87,-125.72 279.87,-279.87l0 -2673.59c0,-154.14 -125.72,-279.87 -279.87,-279.87l-13817.51 0c-154.14,0 -279.87,125.72 -279.87,279.87l0 2668.12c0,154.14 125.72,279.87 279.87,279.87l1531.72 0z"/>
 </g>
</svg>
