<?xml version="1.0" encoding="UTF-8"?><svg xmlns="http://www.w3.org/2000/svg" viewBox="0 0 34.76 44.73"><defs><style>.d{fill:#67cdfd;}.d,.e{fill-rule:evenodd;}.e{fill:#727270;}</style></defs><g id="a"/><g id="b"><g id="c"><path class="d" d="M34.76,8.6h0c0-4.71-3.88-8.6-8.6-8.6-2.15,0-4.05,.74-5.54,1.98,.66,2.23,1.98,4.55,3.89,6.53,2.48,2.65,5.7,4.3,8.85,4.71,.91-1.32,1.41-2.89,1.41-4.63h0Z"/><path class="d" d="M23.68,9.18h0c-1.82-1.9-3.14-4.14-3.89-6.45-1.08,1.24-1.82,2.65-2.15,4.3,.83,2.32,2.32,4.46,4.3,6.29,1.82,1.73,3.97,2.98,6.12,3.72,1.82-.42,3.48-1.41,4.63-2.81-3.22-.58-6.45-2.31-9.01-5.04h0Z"/><path class="e" d="M24.34,40.43H15.41v-11.25c-.58,.42-1.41,.66-2.23,.66-1.99,0-3.64-1.49-3.64-3.39s1.65-3.47,3.64-3.47c1.65,0,2.97,1.07,3.47,2.48l9.26-8.19c-4.71-.58-8.44-4.3-9.1-9.01L.12,27.04c-.16,.17-.16,.58,.08,.83l6.04,6.03c.25,.25,.58,.25,.74,.09l4.3-3.81v10.25H2.92c-.17,0-.33,.17-.33,.33v3.55c0,.25,.16,.42,.33,.42H24.34c.25,0,.42-.17,.42-.42v-3.55c0-.17-.16-.33-.42-.33h0Z"/></g></g></svg>